<svg xmlns="http://www.w3.org/2000/svg" viewBox="0 0 800 1520" font-family="'Segoe UI', 'Helvetica Neue', Arial, sans-serif">
  <defs>
    <marker id="arrow" viewBox="0 0 10 10" refX="9" refY="5" markerWidth="7" markerHeight="7" orient="auto-start-auto">
      <path d="M 0 0 L 10 5 L 0 10 z" fill="#475569"/>
    </marker>
    <marker id="arrow-green" viewBox="0 0 10 10" refX="9" refY="5" markerWidth="7" markerHeight="7" orient="auto-start-auto">
      <path d="M 0 0 L 10 5 L 0 10 z" fill="#16a34a"/>
    </marker>
    <linearGradient id="bg-grad" x1="0" y1="0" x2="0" y2="1">
      <stop offset="0%" stop-color="#f8fafc"/>
      <stop offset="100%" stop-color="#f1f5f9"/>
    </linearGradient>
    <filter id="shadow" x="-2%" y="-2%" width="104%" height="104%">
      <feDropShadow dx="1" dy="2" stdDeviation="3" flood-opacity="0.1"/>
    </filter>
    <filter id="shadow-sm" x="-2%" y="-2%" width="104%" height="104%">
      <feDropShadow dx="0.5" dy="1" stdDeviation="1.5" flood-opacity="0.08"/>
    </filter>
  </defs>

  <!-- Background -->
  <rect width="800" height="1520" rx="12" fill="url(#bg-grad)" stroke="#e2e8f0" stroke-width="1"/>

  <!-- ============================================ -->
  <!-- Title -->
  <!-- ============================================ -->
  <text x="400" y="40" text-anchor="middle" font-size="20" font-weight="700" fill="#0f172a">Cambyses Algorithm Overview</text>
  <text x="400" y="62" text-anchor="middle" font-size="12" fill="#64748b">Context-Aware Migration Balancer &#x2014; Scoring-Based Candidate Selection</text>

  <!-- ============================================ -->
  <!-- SECTION 1: Shared Runqueue -->
  <!-- ============================================ -->
  <rect x="20" y="82" width="760" height="118" rx="10" fill="white" stroke="#e2e8f0" stroke-width="1" filter="url(#shadow)"/>
  <text x="36" y="106" font-size="12" font-weight="600" fill="#334155">Source Runqueue (busiest CPU)</text>
  <text x="36" y="122" font-size="10" fill="#94a3b8">cfs_tasks list &#x2014; mixed tasks with varying cache residency, weight, and starvation</text>

  <!-- Head label -->
  <text x="56" y="148" font-size="9" fill="#94a3b8">head</text>

  <!-- T1: cache-hot, heavy -->
  <rect x="36" y="154" width="72" height="32" rx="5" fill="#fef2f2" stroke="#fca5a5" stroke-width="1"/>
  <text x="72" y="168" text-anchor="middle" font-size="9" font-weight="600" fill="#991b1b">T1</text>
  <text x="72" y="180" text-anchor="middle" font-size="7" fill="#b91c1c">hot, heavy</text>

  <!-- T2: cache-cold, I/O -->
  <rect x="116" y="154" width="72" height="32" rx="5" fill="#f0fdf4" stroke="#86efac" stroke-width="1"/>
  <text x="152" y="168" text-anchor="middle" font-size="9" font-weight="600" fill="#166534">T2</text>
  <text x="152" y="180" text-anchor="middle" font-size="7" fill="#15803d">cold, I/O</text>

  <!-- T3: starved -->
  <rect x="196" y="154" width="72" height="32" rx="5" fill="#fefce8" stroke="#fde047" stroke-width="1"/>
  <text x="232" y="168" text-anchor="middle" font-size="9" font-weight="600" fill="#854d0e">T3</text>
  <text x="232" y="180" text-anchor="middle" font-size="7" fill="#a16207">starved, med</text>

  <!-- T5: cache-cold, heavy -->
  <rect x="276" y="154" width="72" height="32" rx="5" fill="#f0fdf4" stroke="#86efac" stroke-width="1"/>
  <text x="312" y="168" text-anchor="middle" font-size="9" font-weight="600" fill="#166534">T5</text>
  <text x="312" y="180" text-anchor="middle" font-size="7" fill="#15803d">cold, heavy</text>

  <!-- ... ellipsis -->
  <text x="365" y="173" text-anchor="middle" font-size="14" fill="#94a3b8">...</text>

  <!-- T15: cache-hot, light -->
  <rect x="390" y="154" width="72" height="32" rx="5" fill="#fef2f2" stroke="#fca5a5" stroke-width="1"/>
  <text x="426" y="168" text-anchor="middle" font-size="9" font-weight="600" fill="#991b1b">T15</text>
  <text x="426" y="180" text-anchor="middle" font-size="7" fill="#b91c1c">hot, light</text>

  <!-- T16: cache-cold, light -->
  <rect x="470" y="154" width="72" height="32" rx="5" fill="#f0fdf4" stroke="#86efac" stroke-width="1"/>
  <text x="506" y="168" text-anchor="middle" font-size="9" font-weight="600" fill="#166534">T16</text>
  <text x="506" y="180" text-anchor="middle" font-size="7" fill="#15803d">cold, light</text>

  <!-- ... ellipsis -->
  <text x="558" y="173" text-anchor="middle" font-size="14" fill="#94a3b8">...</text>

  <!-- T_tail: first from tail -->
  <rect x="580" y="154" width="76" height="32" rx="5" fill="#fef2f2" stroke="#fca5a5" stroke-width="1"/>
  <text x="618" y="168" text-anchor="middle" font-size="9" font-weight="600" fill="#991b1b">T_tail</text>
  <text x="618" y="180" text-anchor="middle" font-size="7" fill="#b91c1c">hot, light</text>

  <!-- Tail label -->
  <text x="668" y="173" font-size="9" fill="#94a3b8">tail</text>

  <!-- scan direction arrow -->
  <line x1="690" y1="192" x2="36" y2="192" stroke="#cbd5e1" stroke-width="1" stroke-dasharray="4,3" marker-end="url(#arrow)"/>
  <text x="363" y="202" text-anchor="middle" font-size="8" fill="#94a3b8">scan direction</text>

  <!-- ============================================ -->
  <!-- SECTION 2: Side-by-side Vanilla vs Cambyses -->
  <!-- ============================================ -->

  <!-- ====== LEFT: Vanilla CFS ====== -->
  <rect x="20" y="218" width="370" height="260" rx="10" fill="white" stroke="#fca5a5" stroke-width="1.5" filter="url(#shadow)"/>
  <rect x="20" y="218" width="370" height="30" rx="10" fill="#fef2f2"/>
  <rect x="20" y="240" width="370" height="8" fill="#fef2f2"/>
  <text x="205" y="240" text-anchor="middle" font-size="13" font-weight="700" fill="#991b1b">Vanilla CFS &#x2014; FIFO Selection</text>

  <!-- Step 1 -->
  <rect x="38" y="260" width="20" height="20" rx="10" fill="#dc2626"/>
  <text x="48" y="275" text-anchor="middle" font-size="11" font-weight="700" fill="white">1</text>
  <text x="66" y="275" font-size="11" font-weight="600" fill="#475569">Scan from tail</text>
  <text x="38" y="293" font-size="10" fill="#64748b">Pick first passing can_migrate_task()</text>
  <text x="38" y="307" font-size="10" fill="#64748b">No comparison between candidates</text>

  <!-- Step 2 -->
  <rect x="38" y="322" width="20" height="20" rx="10" fill="#dc2626"/>
  <text x="48" y="337" text-anchor="middle" font-size="11" font-weight="700" fill="white">2</text>
  <text x="66" y="337" font-size="11" font-weight="600" fill="#475569">Detach immediately</text>
  <text x="38" y="355" font-size="10" fill="#64748b">Repeat until budget consumed</text>

  <!-- Visual: tail tasks picked blindly -->
  <rect x="38" y="372" width="340" height="92" rx="6" fill="#fff7ed" stroke="#fed7aa" stroke-width="1"/>

  <!-- 3 tasks picked from tail -->
  <rect x="52" y="384" width="58" height="26" rx="4" fill="#fef2f2" stroke="#fca5a5" stroke-width="1.5"/>
  <text x="81" y="396" text-anchor="middle" font-size="8" font-weight="600" fill="#991b1b">T_tail</text>
  <text x="81" y="406" text-anchor="middle" font-size="7" fill="#b91c1c">hot, light</text>

  <rect x="116" y="384" width="58" height="26" rx="4" fill="#f0fdf4" stroke="#86efac" stroke-width="1.5"/>
  <text x="145" y="396" text-anchor="middle" font-size="8" font-weight="600" fill="#166534">T16</text>
  <text x="145" y="406" text-anchor="middle" font-size="7" fill="#15803d">cold, light</text>

  <rect x="180" y="384" width="58" height="26" rx="4" fill="#fef2f2" stroke="#fca5a5" stroke-width="1.5"/>
  <text x="209" y="396" text-anchor="middle" font-size="8" font-weight="600" fill="#991b1b">T15</text>
  <text x="209" y="406" text-anchor="middle" font-size="7" fill="#b91c1c">hot, light</text>

  <text x="145" y="434" text-anchor="middle" font-size="8" fill="#94a3b8">&#x2191; picked blindly from tail</text>

  <!-- Better candidates ignored -->
  <rect x="272" y="384" width="46" height="26" rx="4" fill="#f0fdf4" stroke="#86efac" stroke-width="1" opacity="0.4"/>
  <text x="295" y="398" text-anchor="middle" font-size="8" fill="#15803d" opacity="0.5">T5</text>
  <rect x="324" y="384" width="46" height="26" rx="4" fill="#f0fdf4" stroke="#86efac" stroke-width="1" opacity="0.4"/>
  <text x="347" y="398" text-anchor="middle" font-size="8" fill="#15803d" opacity="0.5">T2</text>

  <text x="320" y="434" text-anchor="middle" font-size="9" fill="#dc2626" font-weight="600">better ignored</text>

  <!-- ====== RIGHT: Cambyses ====== -->
  <rect x="410" y="218" width="370" height="260" rx="10" fill="white" stroke="#86efac" stroke-width="1.5" filter="url(#shadow)"/>
  <rect x="410" y="218" width="370" height="30" rx="10" fill="#f0fdf4"/>
  <rect x="410" y="240" width="370" height="8" fill="#f0fdf4"/>
  <text x="595" y="240" text-anchor="middle" font-size="13" font-weight="700" fill="#166534">Cambyses &#x2014; Scored Selection</text>

  <!-- Step 1 -->
  <rect x="428" y="260" width="20" height="20" rx="10" fill="#16a34a"/>
  <text x="438" y="275" text-anchor="middle" font-size="11" font-weight="700" fill="white">1</text>
  <text x="456" y="275" font-size="11" font-weight="600" fill="#475569">Collect + Score all eligible</text>
  <text x="428" y="293" font-size="10" fill="#64748b">score = &#x03A3; w_i &#x00D7; signal_i per candidate</text>
  <text x="428" y="307" font-size="10" fill="#64748b">Up to 32 candidates in a single pass</text>

  <!-- Step 2 -->
  <rect x="428" y="322" width="20" height="20" rx="10" fill="#16a34a"/>
  <text x="438" y="337" text-anchor="middle" font-size="11" font-weight="700" fill="white">2</text>
  <text x="456" y="337" font-size="11" font-weight="600" fill="#475569">Argmax &#x00D7; K extractions</text>
  <text x="428" y="355" font-size="10" fill="#64748b">Detach K highest-scoring in order</text>

  <!-- Visual: best candidates picked -->
  <rect x="428" y="372" width="340" height="92" rx="6" fill="#f0fdf9" stroke="#bbf7d0" stroke-width="1"/>

  <!-- Best candidates selected -->
  <rect x="442" y="384" width="58" height="26" rx="4" fill="#f0fdf4" stroke="#16a34a" stroke-width="1.5"/>
  <text x="471" y="396" text-anchor="middle" font-size="8" font-weight="600" fill="#166534">T5</text>
  <text x="471" y="406" text-anchor="middle" font-size="7" fill="#16a34a">+42</text>

  <rect x="506" y="384" width="58" height="26" rx="4" fill="#f0fdf4" stroke="#16a34a" stroke-width="1.5"/>
  <text x="535" y="396" text-anchor="middle" font-size="8" font-weight="600" fill="#166534">T2</text>
  <text x="535" y="406" text-anchor="middle" font-size="7" fill="#16a34a">+38</text>

  <rect x="570" y="384" width="58" height="26" rx="4" fill="#fefce8" stroke="#16a34a" stroke-width="1.5"/>
  <text x="599" y="396" text-anchor="middle" font-size="8" font-weight="600" fill="#854d0e">T3</text>
  <text x="599" y="406" text-anchor="middle" font-size="7" fill="#16a34a">+31</text>

  <!-- Rejected -->
  <rect x="662" y="384" width="46" height="26" rx="4" fill="#fef2f2" stroke="#fca5a5" stroke-width="1" opacity="0.4"/>
  <text x="685" y="398" text-anchor="middle" font-size="8" fill="#991b1b" opacity="0.5">T1</text>
  <rect x="714" y="384" width="46" height="26" rx="4" fill="#faf5ff" stroke="#d8b4fe" stroke-width="1" opacity="0.4"/>
  <text x="737" y="398" text-anchor="middle" font-size="8" fill="#7e22ce" opacity="0.5">T6</text>

  <text x="610" y="434" text-anchor="middle" font-size="9" fill="#16a34a" font-weight="600">optimal candidates by score</text>

  <!-- ============================================ -->
  <!-- SECTION 3: Cambyses Pipeline Detail -->
  <!-- ============================================ -->
  <rect x="20" y="496" width="760" height="574" rx="10" fill="white" stroke="#e2e8f0" stroke-width="1" filter="url(#shadow)"/>
  <text x="400" y="524" text-anchor="middle" font-size="15" font-weight="700" fill="#0f172a">Cambyses 2-Phase Pipeline Detail</text>

  <!-- ====== Phase 1: Sampling + Scoring ====== -->
  <rect x="40" y="542" width="720" height="274" rx="8" fill="#f8fafc" stroke="#cbd5e1" stroke-width="1"/>
  <rect x="40" y="542" width="720" height="26" rx="8" fill="#e0f2fe"/>
  <rect x="40" y="560" width="720" height="8" fill="#e0f2fe"/>
  <text x="400" y="562" text-anchor="middle" font-size="12" font-weight="700" fill="#0369a1">Phase 1 &#x2014; Sampling + Scoring</text>
  <text x="400" y="580" text-anchor="middle" font-size="10" fill="#64748b">For each task passing can_migrate_task(): compute score with 1-ahead prefetch</text>

  <!-- Candidate box -->
  <rect x="58" y="596" width="100" height="54" rx="6" fill="white" stroke="#94a3b8" stroke-width="1" filter="url(#shadow-sm)"/>
  <text x="108" y="614" text-anchor="middle" font-size="10" font-weight="600" fill="#334155">Candidate T_i</text>
  <text x="108" y="628" text-anchor="middle" font-size="8" fill="#64748b">task_struct</text>
  <text x="108" y="640" text-anchor="middle" font-size="8" fill="#64748b">sched_entity</text>

  <!-- Arrow -->
  <line x1="158" y1="623" x2="194" y2="623" stroke="#475569" stroke-width="1.5" marker-end="url(#arrow)"/>

  <!-- Signal computation box -->
  <rect x="198" y="592" width="280" height="210" rx="6" fill="white" stroke="#2563eb" stroke-width="1.5" filter="url(#shadow-sm)"/>
  <text x="338" y="612" text-anchor="middle" font-size="11" font-weight="700" fill="#1e40af">Configurable Signal Functions</text>

  <!-- Signal list -->
  <text x="214" y="634" font-size="9" fill="#475569" font-weight="600">sig0</text>
  <text x="248" y="634" font-size="9" fill="#64748b">exec_start delta</text>
  <rect x="392" y="625" width="74" height="13" rx="3" fill="#dbeafe"/>
  <rect x="392" y="625" width="60" height="13" rx="3" fill="#3b82f6"/>
  <text x="429" y="634" text-anchor="middle" font-size="7" fill="white" font-weight="600">w = +2</text>

  <text x="214" y="654" font-size="9" fill="#475569" font-weight="600">sig1</text>
  <text x="248" y="654" font-size="9" fill="#64748b">runnable starvation</text>
  <rect x="392" y="645" width="74" height="13" rx="3" fill="#fce7f3"/>
  <rect x="392" y="645" width="74" height="13" rx="3" fill="#ec4899"/>
  <text x="429" y="654" text-anchor="middle" font-size="7" fill="white" font-weight="600">w = -5</text>

  <text x="214" y="674" font-size="9" fill="#94a3b8">sig2</text>
  <text x="248" y="674" font-size="9" fill="#94a3b8">io_boundness</text>
  <rect x="392" y="665" width="74" height="13" rx="3" fill="#f1f5f9"/>
  <text x="429" y="674" text-anchor="middle" font-size="7" fill="#94a3b8">w = 0 (off)</text>

  <text x="214" y="694" font-size="9" fill="#94a3b8">sig3</text>
  <text x="248" y="694" font-size="9" fill="#94a3b8">wakee_penalty</text>
  <rect x="392" y="685" width="74" height="13" rx="3" fill="#f1f5f9"/>
  <text x="429" y="694" text-anchor="middle" font-size="7" fill="#94a3b8">w = 0 (off)</text>

  <line x1="214" y1="704" x2="466" y2="704" stroke="#e2e8f0" stroke-width="0.5"/>
  <text x="214" y="720" font-size="9" fill="#94a3b8" font-style="italic">sig4..7: configurable via sysctl</text>

  <!-- Formula box -->
  <rect x="214" y="736" width="250" height="36" rx="5" fill="#eff6ff" stroke="#93c5fd" stroke-width="1"/>
  <text x="339" y="754" text-anchor="middle" font-size="10" font-weight="600" fill="#1e40af">score = (+2)&#x00D7;sig0 + (-5)&#x00D7;sig1</text>
  <text x="339" y="768" text-anchor="middle" font-size="8" fill="#3b82f6">(default config: 2 active slots)</text>

  <!-- Arrow from signals to score output -->
  <line x1="478" y1="623" x2="504" y2="623" stroke="#475569" stroke-width="1.5" marker-end="url(#arrow)"/>

  <!-- Score output -->
  <rect x="508" y="592" width="120" height="198" rx="6" fill="white" stroke="#475569" stroke-width="1" filter="url(#shadow-sm)"/>
  <text x="568" y="612" text-anchor="middle" font-size="10" font-weight="700" fill="#334155">scores[N]</text>
  <text x="568" y="626" text-anchor="middle" font-size="8" fill="#64748b">s16 array, L1-hot</text>

  <!-- Score entries -->
  <rect x="520" y="640" width="96" height="16" rx="3" fill="#f0fdf4" stroke="#86efac" stroke-width="1"/>
  <text x="528" y="652" font-size="8" fill="#166534" font-weight="600">T5:</text>
  <text x="546" y="652" font-size="8" fill="#166534">+42</text>
  <rect x="574" y="642" width="36" height="12" rx="2" fill="#16a34a" opacity="0.7"/>

  <rect x="520" y="660" width="96" height="16" rx="3" fill="#f0fdf4" stroke="#86efac" stroke-width="1"/>
  <text x="528" y="672" font-size="8" fill="#166534" font-weight="600">T2:</text>
  <text x="546" y="672" font-size="8" fill="#166534">+38</text>
  <rect x="574" y="662" width="32" height="12" rx="2" fill="#16a34a" opacity="0.6"/>

  <rect x="520" y="680" width="96" height="16" rx="3" fill="#fefce8" stroke="#fde047" stroke-width="1"/>
  <text x="528" y="692" font-size="8" fill="#854d0e" font-weight="600">T3:</text>
  <text x="546" y="692" font-size="8" fill="#854d0e">+31</text>
  <rect x="574" y="682" width="26" height="12" rx="2" fill="#eab308" opacity="0.6"/>

  <rect x="520" y="700" width="96" height="16" rx="3" fill="#f8fafc" stroke="#cbd5e1" stroke-width="1"/>
  <text x="528" y="712" font-size="8" fill="#64748b" font-weight="600">T4:</text>
  <text x="546" y="712" font-size="8" fill="#64748b">+12</text>
  <rect x="574" y="702" width="10" height="12" rx="2" fill="#94a3b8" opacity="0.5"/>

  <rect x="520" y="720" width="96" height="16" rx="3" fill="#fef2f2" stroke="#fca5a5" stroke-width="1"/>
  <text x="528" y="732" font-size="8" fill="#991b1b" font-weight="600">T1:</text>
  <text x="546" y="732" font-size="8" fill="#991b1b">-8</text>
  <rect x="574" y="722" width="6" height="12" rx="2" fill="#ef4444" opacity="0.4"/>

  <text x="568" y="764" text-anchor="middle" font-size="8" fill="#94a3b8">...</text>

  <!-- Prefetch annotation -->
  <rect x="644" y="596" width="108" height="80" rx="6" fill="#fefce8" stroke="#fde047" stroke-width="1"/>
  <text x="698" y="612" text-anchor="middle" font-size="9" font-weight="600" fill="#854d0e">1-Ahead Prefetch</text>
  <text x="654" y="626" font-size="8" fill="#a16207">While scoring T_i,</text>
  <text x="654" y="638" font-size="8" fill="#a16207">prefetch T_{i+1}:</text>
  <text x="654" y="654" font-size="7" fill="#92400e" font-family="monospace">exec_start, util_avg</text>
  <text x="654" y="666" font-size="7" fill="#92400e" font-family="monospace">cpus_ptr, last_migrate</text>

  <!-- Score Shadow annotation -->
  <rect x="644" y="686" width="108" height="66" rx="6" fill="#f5f3ff" stroke="#c4b5fd" stroke-width="1"/>
  <text x="698" y="702" text-anchor="middle" font-size="9" font-weight="600" fill="#6b21a8">Score Shadow</text>
  <text x="654" y="716" font-size="8" fill="#7c3aed">sig2/3/5 pre-cached in</text>
  <text x="654" y="728" font-size="8" fill="#7c3aed">sched_entity at events</text>
  <text x="654" y="742" font-size="7" fill="#8b5cf6">(same line as exec_start)</text>

  <!-- ====== Phase 2: Argmax Extraction ====== -->
  <rect x="40" y="830" width="720" height="224" rx="8" fill="#f8fafc" stroke="#cbd5e1" stroke-width="1"/>
  <rect x="40" y="830" width="720" height="26" rx="8" fill="#dcfce7"/>
  <rect x="40" y="848" width="720" height="8" fill="#dcfce7"/>
  <text x="400" y="850" text-anchor="middle" font-size="12" font-weight="700" fill="#166534">Phase 2 &#x2014; Argmax Extraction (K iterations)</text>
  <text x="400" y="868" text-anchor="middle" font-size="10" fill="#64748b">Extract highest-scoring candidate per iteration &#x2014; O(N) scan, not O(N log N) sort</text>

  <!-- K=1 -->
  <rect x="56" y="884" width="206" height="60" rx="6" fill="white" stroke="#16a34a" stroke-width="1.5" filter="url(#shadow-sm)"/>
  <text x="66" y="902" font-size="10" font-weight="700" fill="#166534">K=1: argmax(scores[])</text>
  <rect x="66" y="912" width="56" height="24" rx="4" fill="#f0fdf4" stroke="#16a34a" stroke-width="1.5"/>
  <text x="94" y="928" text-anchor="middle" font-size="9" font-weight="700" fill="#166534">T5 +42</text>
  <text x="132" y="928" font-size="8" fill="#64748b">&#x2192; detach</text>

  <!-- Arrow K1→K2 -->
  <line x1="262" y1="914" x2="282" y2="914" stroke="#16a34a" stroke-width="1.5" marker-end="url(#arrow-green)"/>

  <!-- K=2 -->
  <rect x="286" y="884" width="206" height="60" rx="6" fill="white" stroke="#16a34a" stroke-width="1.2" filter="url(#shadow-sm)"/>
  <text x="296" y="902" font-size="10" font-weight="700" fill="#166534">K=2: argmax(scores[])</text>
  <rect x="296" y="912" width="56" height="24" rx="4" fill="#f0fdf4" stroke="#16a34a" stroke-width="1.5"/>
  <text x="324" y="928" text-anchor="middle" font-size="9" font-weight="700" fill="#166534">T2 +38</text>
  <text x="362" y="928" font-size="8" fill="#64748b">&#x2192; detach</text>

  <!-- Arrow K2→K3 -->
  <line x1="492" y1="914" x2="512" y2="914" stroke="#16a34a" stroke-width="1.5" marker-end="url(#arrow-green)"/>

  <!-- K=3 -->
  <rect x="516" y="884" width="206" height="60" rx="6" fill="white" stroke="#16a34a" stroke-width="1.0" filter="url(#shadow-sm)"/>
  <text x="526" y="902" font-size="10" font-weight="700" fill="#166534">K=3: argmax(scores[])</text>
  <rect x="526" y="912" width="56" height="24" rx="4" fill="#fefce8" stroke="#16a34a" stroke-width="1.5"/>
  <text x="554" y="928" text-anchor="middle" font-size="9" font-weight="700" fill="#854d0e">T3 +31</text>
  <text x="592" y="928" font-size="8" fill="#64748b">&#x2192; detach</text>

  <!-- Argmax Implementation -->
  <rect x="56" y="958" width="340" height="78" rx="6" fill="white" stroke="#cbd5e1" stroke-width="1"/>
  <text x="66" y="976" font-size="10" font-weight="600" fill="#334155">Argmax Implementation</text>

  <rect x="74" y="986" width="8" height="8" rx="2" fill="#2563eb"/>
  <text x="88" y="994" font-size="9" fill="#475569"><tspan font-weight="600">Scalar 4-way:</tspan> GPR, ~27-43 cyc &#x2014; always available</text>

  <rect x="74" y="1002" width="8" height="8" rx="2" fill="#7c3aed"/>
  <text x="88" y="1010" font-size="9" fill="#475569"><tspan font-weight="600">SIMD (AVX2/SSSE3/NEON):</tspan> ~7-14 cyc &#x2014; newidle only</text>

  <text x="74" y="1028" font-size="8" fill="#94a3b8">Scalar is only ~21 cyc slower than SIMD at K=3 &#x2014; negligible vs Phase 1</text>

  <!-- Imbalance Budget -->
  <rect x="410" y="958" width="330" height="78" rx="6" fill="white" stroke="#cbd5e1" stroke-width="1"/>
  <text x="420" y="976" font-size="10" font-weight="600" fill="#334155">Imbalance Budget</text>
  <text x="420" y="994" font-size="9" fill="#475569">Each detached task consumes load from budget.</text>
  <text x="420" y="1010" font-size="9" fill="#475569">Extraction stops when budget consumed or no</text>
  <text x="420" y="1026" font-size="9" fill="#475569">candidates remain. Typically K=1..4 detached.</text>

  <!-- ============================================ -->
  <!-- SECTION 4: Why it works -->
  <!-- ============================================ -->
  <rect x="20" y="1086" width="760" height="72" rx="10" fill="white" stroke="#e2e8f0" stroke-width="1" filter="url(#shadow)"/>
  <text x="400" y="1112" text-anchor="middle" font-size="12" font-weight="700" fill="#0f172a">Result: ~100-300ns overhead per load_balance() call (every 1-4ms) &#x2192; &lt;0.25%</text>
  <text x="400" y="1132" text-anchor="middle" font-size="10" fill="#64748b">Recovered by: fewer migrations, suppressed ping-pong, better budget utilization,</text>
  <text x="400" y="1146" text-anchor="middle" font-size="10" fill="#64748b">improved tail latency, reduced cache warmup cost</text>

  <!-- ============================================ -->
  <!-- SECTION 5: Signal Strategy Diagram -->
  <!-- ============================================ -->
  <rect x="20" y="1174" width="760" height="330" rx="10" fill="white" stroke="#e2e8f0" stroke-width="1" filter="url(#shadow)"/>
  <text x="400" y="1202" text-anchor="middle" font-size="15" font-weight="700" fill="#0f172a">Default Scoring Strategy</text>
  <text x="400" y="1220" text-anchor="middle" font-size="10" fill="#64748b">Two active signals combine absolute wait time with relative contention avoidance</text>

  <!-- sig0 axis -->
  <rect x="40" y="1238" width="355" height="88" rx="8" fill="#eff6ff" stroke="#93c5fd" stroke-width="1"/>
  <text x="56" y="1258" font-size="12" font-weight="700" fill="#1e40af">sig0: exec_start delta (w = +2)</text>
  <text x="56" y="1276" font-size="10" fill="#3b82f6">log2(rq_clock - exec_start) + 1</text>
  <text x="56" y="1294" font-size="10" fill="#475569">Tasks waiting longer get <tspan font-weight="600">higher</tspan> scores</text>
  <text x="56" y="1310" font-size="10" fill="#475569">&#x2192; Ensures starved tasks are migrated</text>

  <!-- sig1 axis -->
  <rect x="415" y="1238" width="345" height="88" rx="8" fill="#fce7f3" stroke="#f9a8d4" stroke-width="1"/>
  <text x="431" y="1258" font-size="12" font-weight="700" fill="#9d174d">sig1: runnable starvation (w = -5)</text>
  <text x="431" y="1276" font-size="10" fill="#db2777">(runnable_avg - util_avg) &gt;&gt; 4</text>
  <text x="431" y="1294" font-size="10" fill="#475569">High contention &#x2192; <tspan font-weight="600">lower</tspan> scores</text>
  <text x="431" y="1310" font-size="10" fill="#475569">&#x2192; Avoids migrating CPU-bound tasks</text>

  <!-- Combined effect -->
  <rect x="40" y="1340" width="720" height="148" rx="8" fill="#f0fdf4" stroke="#86efac" stroke-width="1"/>
  <text x="400" y="1362" text-anchor="middle" font-size="12" font-weight="700" fill="#166534">Combined Effect</text>

  <!-- Preferred -->
  <text x="60" y="1386" font-size="10" fill="#475569"><tspan font-weight="600" fill="#16a34a">&#x2714; Preferred</tspan></text>
  <text x="60" y="1400" font-size="10" fill="#475569">Tasks that have waited long</text>
  <text x="60" y="1414" font-size="10" fill="#475569">but are NOT deeply contended</text>
  <text x="60" y="1428" font-size="10" fill="#475569">(likely I/O-bound or recently</text>
  <text x="60" y="1442" font-size="10" fill="#475569">woken &#x2014; cheap to migrate)</text>

  <line x1="280" y1="1376" x2="280" y2="1448" stroke="#e2e8f0" stroke-width="1"/>

  <!-- Neutral -->
  <text x="300" y="1386" font-size="10" fill="#475569"><tspan font-weight="600" fill="#eab308">&#x25CB; Neutral</tspan></text>
  <text x="300" y="1400" font-size="10" fill="#475569">Tasks with moderate wait</text>
  <text x="300" y="1414" font-size="10" fill="#475569">and moderate contention &#x2014;</text>
  <text x="300" y="1428" font-size="10" fill="#475569">selected only when better</text>
  <text x="300" y="1442" font-size="10" fill="#475569">candidates unavailable</text>

  <line x1="520" y1="1376" x2="520" y2="1448" stroke="#e2e8f0" stroke-width="1"/>

  <!-- Avoided -->
  <text x="540" y="1386" font-size="10" fill="#475569"><tspan font-weight="600" fill="#dc2626">&#x2718; Avoided</tspan></text>
  <text x="540" y="1400" font-size="10" fill="#475569">Tasks with high runqueue</text>
  <text x="540" y="1414" font-size="10" fill="#475569">contention &#x2014; migrating them</text>
  <text x="540" y="1428" font-size="10" fill="#475569">just moves the problem to</text>
  <text x="540" y="1442" font-size="10" fill="#475569">another CPU</text>

</svg>
